# xmcd CD database file
#
# Track frame offsets:
#	150
#	22137
#	35890
#	54847
#	75710
#	101955
#	120907
#	137470
#	153852
#	176780
#	196592
#
# Disc length: 2832 seconds
#
# Revision: 0
# Processed by: cddbd v1.5PL3 Copyright (c) Steve Scherf et al.
# Submitted via: CDex 1.51
#
DISCID=880b0e0b
DTITLE=Charlatans - Between 10th And 11th
DYEAR=1992
DGENRE=Rock
TTITLE0=I Don't Want To See The Sights
TTITLE1=Ignition
TTITLE2=Page One
TTITLE3=Tremelo Song
TTITLE4=The End Of Everything
TTITLE5=Subtitle
TTITLE6=Can't Even Be Brothered
TTITLE7=Weirdo
TTITLE8=Chewing Gum Weekend
TTITLE9=(No One)Not Even The Rain
TTITLE10=Me,In Time
EXTD=YEAR: 1992
EXTT0=
EXTT1=
EXTT2=
EXTT3=
EXTT4=
EXTT5=
EXTT6=
EXTT7=
EXTT8=
EXTT9=
EXTT10=
PLAYORDER=
